<svg width="55" height="55" viewBox="0 0 55 55" fill="none" xmlns="http://www.w3.org/2000/svg">
<path d="M14.275 11.8125C15.4 11.475 18.4375 10.4625 22.15 9.3375L17.5375 2.925L24.5125 1.6875L34.3 5.625C37.7875 4.6125 40.7125 3.825 42.175 3.4875C50.725 1.9125 53.65 8.2125 53.65 8.325L53.875 8.6625L53.65 9.1125C53.5375 9.225 52.1875 12.4875 46.1125 13.6125L45.4375 13.725C50.5 18 53.425 24.4125 53.425 31.05C53.425 43.65 43.1875 54 30.475 54C17.7625 54 7.52499 43.7625 7.525 31.05C7.525 27.225 8.5375 23.4 10.3375 20.025L10.1125 20.025L0.999999 7.7625L8.5375 6.4125L14.275 11.8125ZM24.4 3.375L20.4625 4.05L23.8375 8.775C26.425 7.9875 29.125 7.2 31.7125 6.4125L24.4 3.375ZM41.05 14.5125L39.3625 17.4375L40.375 17.2125C40.7125 17.1 41.1625 17.1 41.3875 16.9875C41.95 16.7625 42.4 16.425 42.9625 16.0875L44.425 15.075C44.0875 14.7375 43.6375 14.4 43.3 14.175L41.05 14.5125ZM29.6875 16.5375L28.1125 25.9875L33.175 25.0875L38.9125 14.9625L29.6875 16.5375ZM47.8 18.7875C47.575 19.125 47.125 19.35 46.9 19.575C46.7875 19.6875 46.675 19.8 46.5625 19.9125C45.8875 20.475 45.775 21.7125 46.3375 23.625C46.675 24.975 47.35 27.45 45.775 29.1375C45.4375 29.475 44.9875 29.8125 44.65 30.0375C44.2 30.375 43.75 30.6 43.6375 30.9375C43.4125 31.5 43.975 32.2875 44.425 32.9625C45.4375 34.425 45.55 35.8875 44.7625 36.7875C44.65 36.9 44.5375 37.0125 44.3125 37.2375C44.2 37.35 44.2 37.35 44.0875 37.4625C43.75 37.8 44.3125 38.7 44.7625 39.375L47.9125 43.3125C50.275 39.825 51.7375 35.6625 51.7375 31.275C51.7375 26.55 50.3875 22.275 47.8 18.7875ZM46.9 44.55L43.525 40.275C41.8375 38.1375 42.4 36.7875 42.85 36.225C42.9625 36.1125 43.1875 35.8875 43.3 35.775C43.4125 35.6625 43.4125 35.6625 43.525 35.55C43.8625 35.2125 43.525 34.425 43.075 33.75C42.4 32.85 41.5 31.5 42.0625 30.15C42.4 29.25 43.075 28.8 43.75 28.4625C44.0875 28.2375 44.425 28.125 44.5375 27.9C45.325 27.1125 45.1 25.5375 44.65 24.075C44.425 23.0625 43.6375 20.1375 45.4375 18.5625C45.55 18.45 45.775 18.3375 45.8875 18.225C46.1125 18 46.5625 17.6625 46.5625 17.6625L46.9 17.55C46.5625 17.1 46.1125 16.65 45.6625 16.2L43.975 17.4375C43.4125 17.8875 42.7375 18.3375 42.0625 18.5625C41.6125 18.675 41.1625 18.7875 40.7125 18.9L38.35 19.35L34.3 26.55L30.925 27.225C31.2625 28.4625 31.6 29.925 31.2625 31.3875C31.0375 32.175 30.7 32.85 30.3625 33.4125C29.9125 34.3125 29.4625 35.1 29.575 35.8875C29.8 37.0125 31.15 37.8 31.7125 38.025C32.05 38.1375 32.5 38.3625 32.8375 38.475C33.7375 38.8125 34.6375 39.15 35.5375 39.7125C36.55 40.5 37.225 41.5125 37.9 42.6375C38.0125 42.8625 38.125 43.0875 38.2375 43.2C38.35 43.3125 38.4625 43.3125 38.6875 43.3125C39.3625 43.425 40.0375 43.3125 40.7125 43.3125C41.3875 43.3125 42.175 43.2 42.85 43.3125C43.975 43.425 45.1 43.9875 45.775 44.8875C45.8875 45 46 45.225 46.1125 45.3375C46.45 45.1125 46.675 44.775 46.9 44.55ZM14.3875 44.8875C15.175 45 15.9625 43.875 16.3 42.8625L16.525 42.4125C16.975 41.175 17.425 39.825 18.775 39.0375C19 38.925 19.225 38.8125 19.45 38.7C19.5625 38.5875 19.7875 38.5875 19.9 38.475C20.4625 38.1375 20.9125 37.575 21.25 37.0125C21.7 36.225 22.2625 35.4375 21.925 34.7625C21.8125 34.65 21.7 34.425 21.5875 34.3125C21.3625 33.975 21.025 33.4125 20.9125 32.85C20.9125 31.95 21.475 31.275 21.925 30.825C22.15 30.6 22.4875 30.2625 22.4875 30.0375C22.7125 29.5875 22.15 28.9125 21.475 28.575C21.25 28.4625 20.9125 28.2375 20.6875 28.125C20.0125 27.7875 19.225 27.45 18.6625 26.775L18.2125 26.325L18.55 25.7625C18.55 25.65 18.4375 25.3125 17.9875 25.0875C17.875 24.975 17.65 24.8625 17.425 24.8625C16.8625 24.6375 16.1875 24.3 15.85 23.625C15.7375 23.4 15.625 23.175 15.5125 22.95C15.5125 22.8375 15.4 22.725 15.4 22.6125C14.95 21.7125 13.15 21.2625 11.2375 21.6C9.775 24.525 8.9875 27.7875 8.9875 31.05C9.21249 36.3375 11.2375 41.175 14.3875 44.8875ZM12.475 19.8C13.9375 19.8 16.1875 19.9125 17.2 21.825C17.2 22.05 17.3125 22.1625 17.3125 22.275C17.425 22.3875 17.425 22.6125 17.5375 22.725C17.7625 22.95 18.1 23.175 18.55 23.4C18.775 23.5125 19 23.625 19.225 23.7375C19.9 24.075 20.35 24.75 20.575 25.425C20.575 25.65 20.575 25.875 20.575 26.1C20.9125 26.325 21.25 26.55 21.7 26.775C22.0375 26.8875 22.375 27.1125 22.6 27.225C23.725 27.9 24.85 29.3625 24.2875 30.7125C24.0625 31.275 23.725 31.725 23.275 32.0625C22.9375 32.4 22.7125 32.625 22.7125 32.85C22.7125 32.9625 22.825 33.1875 23.05 33.4125C23.1625 33.6375 23.3875 33.8625 23.5 34.2C24.175 35.6625 23.1625 37.2375 22.6 38.025C22.15 38.7 21.5875 39.6 20.6875 40.05C20.4625 40.1625 20.2375 40.275 20.0125 40.3875C19.9 40.5 19.675 40.5 19.5625 40.6125C18.775 41.0625 18.4375 42.075 18.1 43.0875L17.875 43.5375C17.3125 44.8875 16.525 45.9 15.625 46.35C19.45 50.0625 24.625 52.425 30.475 52.425C35.9875 52.425 40.9375 50.2875 44.7625 46.9125C44.7625 46.6875 44.65 46.2375 44.5375 46.0125C44.2 45.5625 43.4125 45.1125 42.7375 45.1125C42.175 45 41.5 45.1125 40.825 45.1125C40.0375 45.225 39.25 45.225 38.35 45.1125C38.0125 45.1125 37.675 45 37.3375 44.775C36.8875 44.4375 36.6625 44.1 36.4375 43.7625C35.875 42.75 35.2 41.85 34.525 41.2875C33.85 40.8375 33.0625 40.5 32.275 40.275C31.825 40.1625 31.4875 39.9375 31.0375 39.825C29.2375 39.0375 28.1125 37.8 27.8875 36.45C27.6625 35.1 28.3375 33.975 28.7875 32.9625C29.125 32.4 29.35 31.8375 29.575 31.275C29.8 30.15 29.575 28.9125 29.2375 27.7875L26.0875 28.35L28 17.1L12.5875 19.9125C12.475 19.6875 12.475 19.8 12.475 19.8ZM3.8125 9L10.7875 18.225L45.775 11.925C49.825 11.1375 51.2875 9.45 51.85 8.6625C51.4 7.9875 50.5 6.75 48.8125 5.85C48.25 6.6375 47.2375 7.875 45.4375 8.4375L44.875 6.8625C46.1125 6.525 46.7875 5.85 47.2375 5.2875C46 4.95 44.425 4.8375 42.5125 5.175C37.7875 6.075 14.5 13.5 14.275 13.5L13.825 13.6125L7.975 8.2125L3.8125 9Z" fill="black"/>
<path d="M16.9198 43.2323C17.3771 41.9876 17.8344 40.5167 18.9776 39.8378C19.3206 39.6115 19.7779 39.4983 20.1208 39.3852C20.8068 39.0457 21.3784 38.2536 21.8357 37.5747C22.4073 36.6695 23.0932 35.538 22.6359 34.5197C22.4073 33.9539 21.8357 33.5013 21.7214 32.8224C21.7214 31.804 22.9789 31.3514 23.3219 30.3331C23.6648 29.3147 22.8646 28.2964 21.95 27.8437C21.0354 27.278 20.0065 27.0517 19.3206 26.2596C19.7779 25.5807 19.2063 24.7887 18.5203 24.3361C17.8344 23.9966 17.0341 23.7703 16.5768 23.0914C16.3482 22.7519 16.2339 22.4125 16.1195 22.073C15.3193 20.4889 12.9185 20.3758 11.0893 20.6021L10.5177 20.6021C10.8607 20.0363 11.0893 19.5837 11.4323 19.018L43.7857 13.1341C44.5859 13.6999 45.3862 14.3788 46.0721 15.0577C45.2719 15.6234 44.3573 16.4155 43.7857 16.7549C43.2141 17.2076 42.6424 17.547 41.9565 17.7733C41.6135 17.8865 41.1563 17.9996 40.699 18.1128C40.013 18.2259 39.2128 18.3391 38.5268 18.5654L31.2102 19.9232L29.9526 27.278C30.2956 28.6358 30.6385 29.9936 30.2956 31.2383C29.8383 32.9355 28.3521 34.4065 28.5807 36.1038C28.8094 37.4616 30.0669 38.3668 31.3245 38.9326C32.582 39.4983 33.9539 39.7246 34.9828 40.5167C35.8974 41.1956 36.5833 42.2139 37.1549 43.2323C37.3836 43.5717 37.4979 43.798 37.8409 44.0243C38.0695 44.1375 38.2982 44.2507 38.6411 44.2507C40.1273 44.477 41.4992 44.0243 42.9854 44.2507C44.4716 44.3638 45.9578 45.4953 45.8435 46.9663L45.8435 47.3057C41.8422 51.0397 36.469 53.3027 30.5242 53.3027C23.8935 53.3027 17.9487 50.3608 13.8331 45.8348L14.176 45.8348C15.5479 45.9479 16.4625 44.5901 16.9198 43.2323Z" fill="#6FC1FD"/>
<path d="M10.632 20.7152L11.2036 20.7152C13.0328 20.4889 15.3193 20.6021 16.2339 22.1862C16.3482 22.5256 16.4625 22.8651 16.6911 23.2046C17.1484 23.8835 17.9487 24.1098 18.6346 24.4492C19.3206 24.7887 19.8922 25.6939 19.4349 26.3728C20.1208 27.1648 21.1497 27.5043 22.0643 27.9569C22.9789 28.5227 23.7792 29.541 23.4362 30.4462C23.0932 31.3514 21.8357 31.9172 21.8357 32.9355C21.8357 33.6145 22.4073 34.0671 22.7503 34.6328C23.2076 35.6512 22.5216 36.7827 21.95 37.6879C21.4927 38.3668 21.0354 39.0457 20.2352 39.4983C19.8922 39.7246 19.4349 39.8378 19.0919 39.9509C17.9487 40.6298 17.4914 42.1008 17.0341 43.3454C16.5768 44.5901 15.6622 45.9479 14.2904 45.9479L13.9474 45.9479C10.4034 41.9876 8.23125 36.8958 8.23125 31.1251C8.11693 27.3911 9.03151 23.8835 10.632 20.7152Z" fill="#80D994"/>
<path d="M43.0997 44.2506C41.6135 44.1375 40.2417 44.477 38.7555 44.2506C38.5268 44.2506 38.1839 44.1375 37.9552 44.0243C37.6122 43.798 37.4979 43.5717 37.2693 43.2323C36.6977 42.2139 36.0117 41.1956 35.0971 40.5167C33.9539 39.7246 32.582 39.3852 31.4388 38.9325C30.1812 38.3668 28.9237 37.4616 28.6951 36.1038C28.4664 34.4065 29.9526 32.9355 30.4099 31.2383C30.7529 29.8805 30.4099 28.5227 30.0669 27.278L31.3245 19.9232L38.6411 18.5654C39.3271 18.4522 40.1273 18.3391 40.8133 18.1128C41.2706 17.9996 41.6135 17.9996 42.0708 17.7733C42.7568 17.547 43.3284 17.0944 43.9 16.7549C44.4716 16.4155 45.3862 15.6234 46.1865 15.0577C46.7581 15.6234 47.3297 16.1892 47.9013 16.8681L47.787 17.3207C48.13 18.1128 47.101 18.6785 46.4151 19.2443C45.1576 20.3758 45.3862 22.2993 45.8435 23.8835C46.3008 25.4676 46.6438 27.3911 45.5005 28.6358C44.8146 29.4279 43.557 29.6542 43.0997 30.6725C42.7568 31.6909 43.4427 32.5961 44.0143 33.5013C44.5859 34.4065 45.1576 35.538 44.4716 36.3301C44.243 36.5564 44.0143 36.6695 43.7857 36.8958C43.0997 37.801 43.7857 39.0457 44.4716 39.8378C45.5005 41.0824 47.101 43.2323 48.3586 44.7033C47.6727 45.6085 46.7581 46.5137 45.9578 47.3057L45.9578 46.9663C46.0721 45.4953 44.4716 44.3638 43.0997 44.2506Z" fill="#AD9DC4"/>
<path d="M43.7857 36.8958C44.0143 36.6695 44.243 36.5564 44.4716 36.3301C45.1575 35.538 44.7003 34.2934 44.0143 33.5013C43.4427 32.5961 42.7568 31.6909 43.0997 30.6725C43.4427 29.6542 44.7003 29.4279 45.5005 28.6358C46.6437 27.5043 46.3008 25.5807 45.8435 23.8835C45.3862 22.2993 45.1576 20.2626 46.4151 19.2443C47.101 18.6785 48.1299 18.1128 47.787 17.3207L47.9013 16.8681C51.2167 20.7152 53.1602 25.6939 53.1602 31.1251C53.1602 36.2169 51.4453 40.9693 48.4729 44.7033C47.3297 43.2323 45.6148 41.0824 44.5859 39.8378C43.7857 38.9325 43.0997 37.6879 43.7857 36.8958Z" fill="#FFC802"/>
<path d="M2.17213 8.38177L8.0026 7.25026L13.8331 12.6815C13.8331 12.6815 37.6122 5.10039 42.6424 4.19518C50.7594 2.83737 53.2745 8.60807 53.2745 8.60807C53.2745 8.60807 52.0169 11.6632 46.1865 12.6815C37.0406 14.3788 10.0604 19.1311 10.0604 19.1311L2.17213 8.38177Z" fill="white"/>
<path d="M40.8133 13.6999L33.8396 25.807L27.0945 27.0517L29.038 15.8497" fill="#FD24AF"/>
<path d="M34.2969 6.34505L24.4651 2.38476L18.8633 3.40312L23.4362 9.62643" fill="#FD24AF"/>
</svg>
