<svg width="21" height="21" viewBox="0 0 21 21" fill="none" xmlns="http://www.w3.org/2000/svg">
<path d="M12.5652 14.5582C12.5652 14.5582 14.168 13.6406 14.5875 13.4202C15.0059 13.1989 15.4394 13.1431 15.7026 13.3038C16.1012 13.5476 19.4484 15.7742 19.7302 15.9714C20.012 16.1689 20.1478 16.7329 19.7603 17.2855C19.3743 17.8381 17.5939 20.0232 16.8394 19.9998C16.0838 19.9753 12.9421 19.9064 7.01764 13.9803C1.09441 8.05614 1.02434 4.91357 1.0002 4.15791C0.976053 3.40265 3.16105 1.62177 3.71363 1.23543C4.267 0.849487 4.83185 0.99476 5.02819 1.26631C5.25144 1.57546 7.45226 4.91199 7.69451 5.29437C7.86037 5.55562 7.79941 5.99144 7.57814 6.41024C7.35805 6.82983 6.44052 8.43259 6.44052 8.43259C6.44052 8.43259 7.08731 9.53579 9.27467 11.7228C11.4624 13.9102 12.5652 14.5582 12.5652 14.5582Z" stroke="black" stroke-width="1.5" stroke-miterlimit="10"/>
</svg>
